<svg id="Layer_1" data-name="Layer 1" xmlns="http://www.w3.org/2000/svg" viewBox="0 0 512 512"><title>plus-cross-circle-glyph</title><path d="M256,24C383.9,24,487.95,128.1,487.95,256S383.9,488,256,488,24,383.9,24,256,128.09,24,256,24ZM0,256C0,397.16,114.84,512,256,512S512,397.16,512,256,397.16,0,256,0,0,114.84,0,256Z" fill="#5b5b5f"/><polygon points="403.99 286.2 403.99 225.8 286.2 225.8 286.2 108.02 225.79 108.02 225.79 225.8 108.03 225.8 108.03 286.2 225.79 286.2 225.79 403.98 286.2 403.99 286.2 286.2 403.99 286.2" fill="#5b5b5f"/></svg>