<svg id="Layer_1" data-name="Layer 1" xmlns="http://www.w3.org/2000/svg" viewBox="0 0 512 512"><title>stopwatch-glyph</title><path d="M391.6,134.1l28.07-38.42a21.33,21.33,0,1,0-34.45-25.17l-29.14,39.88a211.61,211.61,0,0,0-78.76-24V42.67H320A21.33,21.33,0,0,0,320,0H192a21.33,21.33,0,0,0,0,42.67h42.67V86.41C127,97.15,42.67,188.23,42.67,298.67,42.67,416.3,138.37,512,256,512s213.33-95.7,213.33-213.33A213,213,0,0,0,391.6,134.1ZM335.08,377.75a21.33,21.33,0,0,1-30.17,0l-64-64a21.34,21.34,0,0,1-6.25-15.08V213.33a21.33,21.33,0,0,1,42.67,0v76.5l57.75,57.75A21.33,21.33,0,0,1,335.08,377.75Z"/></svg>